<?xml version="1.0" standalone="no"?>
<!DOCTYPE svg PUBLIC "-//W3C//DTD SVG 20010904//EN"
 "http://www.w3.org/TR/2001/REC-SVG-20010904/DTD/svg10.dtd">
<svg version="1.0" xmlns="http://www.w3.org/2000/svg"
 width="347.000000pt" height="98.000000pt" viewBox="0 0 347.000000 98.000000"
 preserveAspectRatio="xMidYMid meet">

<g transform="translate(0.000000,98.000000) scale(0.100000,-0.100000)"
fill="#000000" stroke="none">
<path d="M0 475 l0 -475 1735 0 1735 0 0 475 0 475 -1735 0 -1735 0 0 -475z
m3450 -5 l0 -450 -1715 0 -1715 0 0 450 0 450 1715 0 1715 0 0 -450z"/>
<path d="M90 470 l0 -390 820 0 820 0 0 390 0 390 -820 0 -820 0 0 -390z m560
117 c0 -6 -29 -56 -65 -109 -36 -54 -65 -100 -65 -103 0 -3 32 -5 70 -5 56 0
70 -3 70 -15 0 -12 -17 -15 -95 -15 -78 0 -95 3 -95 15 0 9 29 59 65 113 l65
97 -65 3 c-49 2 -65 7 -65 17 0 12 18 15 90 15 66 0 90 -3 90 -13z m251 -111
c27 -66 49 -124 49 -128 0 -21 -33 -4 -43 22 -11 29 -14 30 -75 30 -61 0 -63
-1 -73 -30 -7 -20 -18 -30 -31 -30 -12 0 -18 5 -15 13 2 6 26 65 53 130 63
153 69 153 135 -7z m287 108 c26 -18 30 -74 8 -93 -13 -11 -12 -15 5 -32 28
-28 25 -73 -7 -98 -21 -17 -41 -21 -95 -21 l-69 0 0 130 0 130 68 0 c45 0 75
-5 90 -16z m152 -114 c0 -109 -2 -130 -15 -130 -13 0 -15 21 -15 130 0 109 2
130 15 130 13 0 15 -21 15 -130z"/>
<path d="M822 530 c-5 -14 -17 -42 -25 -62 l-16 -38 50 0 c27 0 49 1 49 3 0 2
-11 30 -24 63 -23 56 -25 58 -34 34z"/>
<path d="M1060 530 l0 -40 50 0 c38 0 52 4 60 19 13 25 13 27 -6 45 -9 10 -33
16 -60 16 l-44 0 0 -40z"/>
<path d="M1060 415 l0 -45 48 0 c53 0 72 12 72 47 0 28 -27 43 -79 43 l-41 0
0 -45z"/>
<path d="M2223 602 c-38 -11 -63 -40 -63 -71 0 -40 27 -69 80 -84 33 -10 45
-18 45 -32 0 -25 -28 -31 -48 -10 -9 8 -29 15 -46 15 -38 0 -41 -21 -6 -55 20
-20 34 -25 78 -25 71 0 101 22 101 75 0 44 -26 71 -79 81 -37 7 -60 27 -50 44
9 15 45 12 51 -5 7 -17 74 -21 74 -4 0 24 -24 52 -55 65 -37 15 -47 16 -82 6z"/>
<path d="M2443 488 c-24 -62 -46 -121 -49 -130 -5 -15 0 -18 34 -18 31 0 41 4
45 20 4 16 14 20 50 20 37 0 47 -4 52 -20 5 -16 15 -20 46 -20 21 0 39 1 39 3
0 1 -22 58 -49 127 l-48 125 -39 3 -39 2 -42 -112z m107 -45 c0 -7 -11 -13
-25 -13 -28 0 -31 15 -13 56 l12 27 13 -29 c7 -16 12 -35 13 -41z"/>
<path d="M2690 470 l0 -130 34 0 c34 0 35 1 38 48 l3 47 43 3 42 3 0 -50 0
-51 35 0 35 0 0 130 0 130 -35 0 c-35 0 -35 0 -35 -45 l0 -45 -45 0 -45 0 0
45 c0 45 0 45 -35 45 l-35 0 0 -130z"/>
<path d="M2980 470 l0 -130 35 0 35 0 0 130 0 130 -35 0 -35 0 0 -130z"/>
</g>
</svg>
